<svg version="1.1" id="Layer_1" xmlns="http://www.w3.org/2000/svg" xmlns:xlink="http://www.w3.org/1999/xlink" x="0px" y="0px"
	 width="100%" viewBox="0 0 880 1024" enable-background="new 0 0 880 1024" xml:space="preserve">
<path fill="#000000" opacity="1.000000" stroke="none" 
	d="
M353.901978,497.139099 
	C332.194000,482.503052 310.810730,468.026459 289.323090,453.706451 
	C286.191620,451.619507 284.924042,449.225769 284.931915,445.478729 
	C285.011536,407.649994 284.937988,369.820953 284.971161,331.992035 
	C284.973419,329.410950 283.948883,326.016968 286.464844,324.524017 
	C289.149445,322.930878 291.340485,325.907013 293.404907,327.302795 
	C322.388428,346.899597 351.269531,366.647888 380.264435,386.227753 
	C383.406158,388.349304 383.930084,391.078186 383.926453,394.362152 
	C383.907379,411.526733 384.064209,428.693390 383.821625,445.854553 
	C383.752991,450.707947 385.217194,453.634766 389.442444,456.382141 
	C404.802155,466.369537 419.790955,476.925903 434.992889,487.158844 
	C437.640594,488.941071 438.805573,491.178589 438.780884,494.241547 
	C438.638763,511.885193 438.513397,529.528992 438.364532,547.172607 
	C438.352081,548.651001 438.543762,550.195374 436.687164,552.527771 
	C409.046387,534.505188 381.626526,515.916626 353.901978,497.139099 
z"/>
<path fill="#000000" opacity="1.000000" stroke="none" 
	d="
M511.895813,366.932800 
	C507.582733,369.816589 503.678833,372.690582 499.511841,375.111877 
	C496.217590,377.026123 495.132233,379.481842 495.140564,383.254608 
	C495.241608,429.061218 495.032623,474.869232 495.349091,520.673828 
	C495.395630,527.409485 493.200500,531.458496 487.706757,534.877686 
	C479.372528,540.064697 471.413300,545.852173 463.251007,551.319336 
	C461.788025,552.299194 460.435730,553.767395 458.308014,553.329956 
	C456.540649,551.787354 457.016632,549.670410 457.014954,547.742676 
	C456.988464,517.094238 456.999573,486.445831 457.003723,455.797394 
	C457.008728,418.845306 457.103394,381.892731 456.915253,344.941650 
	C456.890289,340.045837 458.431580,337.110168 462.480316,334.323517 
	C505.553619,304.677216 548.485229,274.824951 591.463867,245.041107 
	C596.391357,241.626419 601.347046,238.251282 606.329651,234.917603 
	C610.231567,232.306976 611.912537,232.981323 611.937134,237.508392 
	C612.041199,256.663147 611.935730,275.818909 611.992004,294.974060 
	C612.002686,298.599121 609.559814,300.171326 607.051270,301.884949 
	C575.424622,323.489380 543.809570,345.110718 511.895813,366.932800 
z"/>
<path fill="#000000" opacity="1.000000" stroke="none" 
	d="
M612.029541,363.000000 
	C612.007080,390.973419 611.909607,418.447144 612.037964,445.919861 
	C612.058777,450.369995 610.719482,453.225952 606.885498,455.765228 
	C578.021973,474.881744 549.313354,494.232147 520.535522,513.478271 
	C518.797913,514.640381 517.053040,516.877991 514.837769,515.803406 
	C512.343445,514.593445 513.158691,511.701172 513.154724,509.474609 
	C513.087463,471.856384 513.152039,434.237701 512.965454,396.620209 
	C512.940613,391.613831 514.402954,388.358856 518.671936,385.476166 
	C547.918213,365.727234 576.992737,345.723938 606.137634,325.824646 
	C607.451721,324.927399 608.780884,323.355865 610.574097,324.479584 
	C612.185120,325.489258 611.990845,327.383942 611.995300,329.032593 
	C612.025452,340.188354 612.022095,351.344177 612.029541,363.000000 
z"/>
<path fill="#000000" opacity="1.000000" stroke="none" 
	d="
M429.944031,460.112854 
	C422.023315,454.825623 414.499237,449.584198 406.735077,444.726501 
	C403.222443,442.528748 401.774811,439.928589 401.814362,435.771820 
	C401.980988,418.278687 401.763947,400.781738 401.954498,383.289093 
	C401.997253,379.360718 400.819305,376.772736 397.574707,374.564545 
	C368.245880,354.604187 338.992401,334.533081 309.707764,314.507751 
	C302.695343,309.712555 295.699646,304.889526 288.592346,300.238068 
	C285.904266,298.478821 284.947906,296.248932 284.959625,293.130951 
	C285.027191,275.136719 284.964600,257.141968 284.989594,239.147476 
	C284.991852,237.534744 284.570435,235.547897 286.237762,234.562622 
	C288.006775,233.517212 289.350037,235.121353 290.664764,236.018845 
	C338.677216,268.793610 386.663086,301.607391 434.704498,334.339661 
	C437.638336,336.338593 438.945068,338.725311 438.936798,342.217712 
	C438.852814,377.706299 438.829742,413.194977 438.799316,448.683655 
	C438.796478,452.012573 439.001129,455.347443 438.861389,458.669159 
	C438.623657,464.320587 437.319366,464.976074 432.731659,461.987030 
	C431.894348,461.441528 431.071991,460.873047 429.944031,460.112854 
z"/>
<path fill="#000000" opacity="1.000000" stroke="none" 
	d="
M393.939514,202.394379 
	C396.829315,182.501755 405.842957,167.164581 423.531128,157.627686 
	C456.789276,139.695953 499.794861,162.858459 503.243896,200.550797 
	C506.069092,231.425354 487.572662,256.955627 458.351074,262.515350 
	C428.607697,268.174377 399.838806,247.664581 394.830322,217.263367 
	C394.042450,212.481079 393.548309,207.695404 393.939514,202.394379 
z"/>
<path fill="#000000" opacity="1.000000" stroke="none" 
	d="
M673.447937,694.902710 
	C673.406250,701.967285 673.406250,702.008606 666.831177,702.008301 
	C643.014587,702.007141 619.197876,701.924072 595.381653,702.004761 
	C591.251770,702.018738 588.881958,701.265137 588.907776,696.282776 
	C589.072754,664.472900 588.979126,632.661682 589.015625,600.850952 
	C589.025513,592.189575 589.190430,592.058899 598.089417,592.039062 
	C620.573486,591.989014 643.057739,591.970032 665.541870,591.956482 
	C671.563110,591.952820 671.995728,592.412415 672.026855,598.547913 
	C672.043762,601.878723 671.813110,605.225708 672.066345,608.536865 
	C672.459900,613.684265 670.019165,615.170410 665.226440,615.106628 
	C651.072144,614.918091 636.913879,615.014709 622.757202,615.019287 
	C616.165466,615.021423 616.139282,615.068481 616.147278,621.743530 
	C616.163086,634.897522 616.163086,634.894470 629.281677,634.893250 
	C639.607788,634.892273 649.935791,635.016602 660.259094,634.847473 
	C664.476318,634.778381 666.459045,636.221191 666.212524,640.624512 
	C665.998657,644.443176 666.029785,648.289490 666.204224,652.112122 
	C666.382507,656.019043 664.711426,657.365601 660.860840,657.319946 
	C647.871765,657.165833 634.877441,657.399170 621.890198,657.181702 
	C617.639709,657.110596 615.700195,658.272034 616.090515,662.797363 
	C616.404297,666.434631 616.341431,670.131409 616.112976,673.780945 
	C615.867371,677.704041 617.427429,679.027771 621.326538,678.982727 
	C636.147644,678.811462 650.971680,678.888367 665.794617,678.889404 
	C673.557617,678.890015 673.991455,679.295593 673.944763,687.015625 
	C673.929688,689.506348 673.628967,691.995300 673.447937,694.902710 
z"/>
<path fill="#000000" opacity="1.000000" stroke="none" 
	d="
M247.512329,602.576782 
	C249.652939,593.849670 254.830994,591.359619 263.365875,591.800537 
	C282.240906,592.775757 277.392090,589.144409 284.777679,606.097473 
	C297.548737,635.412354 310.039154,664.849548 322.643036,694.237244 
	C323.102509,695.308655 323.480103,696.416016 323.960663,697.477295 
	C325.290466,700.413879 324.398254,701.969788 321.145111,701.978760 
	C314.146667,701.998047 307.148041,701.957153 300.149536,701.969788 
	C297.635223,701.974304 295.877777,700.851257 295.454407,698.382385 
	C293.120239,684.771118 284.711029,680.858521 271.953064,683.070618 
	C268.232880,683.715759 264.303955,683.214844 260.472382,683.145935 
	C255.097290,683.049255 254.647339,682.301575 256.838013,677.205627 
	C258.416962,673.532776 260.250061,669.957458 261.622833,666.211426 
	C262.720001,663.217529 264.681335,662.179382 267.668243,662.049377 
	C271.617889,661.877441 275.620605,662.569275 279.523529,661.648071 
	C279.388519,657.430237 268.776520,630.187195 265.295349,624.967041 
	C263.060974,625.796265 263.015808,628.055969 262.306549,629.776062 
	C253.101166,652.101624 243.895050,674.427368 234.861893,696.822815 
	C233.413376,700.414062 231.458008,702.162109 227.471100,701.999573 
	C221.981766,701.775696 216.474136,702.049438 210.976654,701.962830 
	C205.584854,701.877930 205.056946,701.020325 207.189835,696.071045 
	C220.571960,665.018799 233.974838,633.975403 247.512329,602.576782 
z"/>
<path fill="#000000" opacity="1.000000" stroke="none" 
	d="
M119.571625,676.339050 
	C108.140854,648.603394 96.841682,621.229980 85.711555,594.266052 
	C87.372093,591.681763 89.333168,592.044617 91.101486,592.024780 
	C96.600151,591.963135 102.119194,592.267517 107.593216,591.890747 
	C112.495483,591.553284 114.583038,593.770508 116.259773,598.121216 
	C124.524681,619.566711 133.106201,640.890259 141.603622,662.245850 
	C142.084122,663.453491 142.332703,664.845642 143.820465,665.795410 
	C145.788605,664.335266 146.052872,661.906372 146.874969,659.846558 
	C155.086105,639.273132 163.371704,618.727783 171.338455,598.059753 
	C173.148376,593.364319 175.884552,591.661743 180.717911,591.936462 
	C186.033508,592.238525 191.378845,592.004761 196.711090,592.030945 
	C200.365921,592.048889 201.333893,593.412598 199.827667,597.032776 
	C186.008408,630.246948 172.269318,663.494934 158.651764,696.792236 
	C157.094299,700.600403 154.941284,702.245117 150.793533,702.043518 
	C145.308304,701.776733 139.796616,701.933289 134.300125,702.066528 
	C131.228165,702.140991 129.463333,701.029846 128.333450,698.005371 
	C125.653053,690.830627 122.603554,683.793823 119.571625,676.339050 
z"/>
<path fill="#000000" opacity="1.000000" stroke="none" 
	d="
M750.818726,625.223755 
	C753.206848,629.187439 755.402649,632.839050 757.545898,636.403137 
	C760.147705,635.488770 760.648987,633.568359 761.531677,632.058411 
	C768.419861,620.274719 775.356201,608.516113 782.005127,596.597656 
	C783.879395,593.238037 786.153931,591.781860 789.938049,591.918030 
	C795.259399,592.109497 800.592896,591.947998 805.921082,591.975586 
	C807.559570,591.984131 809.282166,591.828125 810.983521,593.752686 
	C808.386597,598.663513 805.824097,603.818970 802.986877,608.818542 
	C793.375549,625.754700 783.711182,642.661377 773.955566,659.514832 
	C772.140320,662.650818 771.241455,665.784485 771.307190,669.433960 
	C771.472046,678.588806 771.236206,687.750732 771.384033,696.906189 
	C771.440918,700.432312 770.379089,702.182861 766.596802,702.084656 
	C760.772949,701.933533 754.940002,701.954407 749.115173,702.086853 
	C745.216797,702.175415 743.828247,700.406067 743.879456,696.631775 
	C744.003723,687.475586 743.735535,678.312256 743.957214,669.159851 
	C744.058960,664.959534 742.831543,661.491028 740.751099,657.914795 
	C729.117126,637.916687 717.672119,617.808655 706.194336,597.719971 
	C705.472534,596.456726 704.408325,595.253967 704.718445,593.585815 
	C705.449890,592.164856 706.833130,592.111572 708.148010,592.037598 
	C709.642273,591.953491 711.143921,591.997498 712.642334,591.989563 
	C731.871033,591.888123 731.866211,591.891052 741.229492,608.428711 
	C744.345520,613.932312 747.493225,619.417847 750.818726,625.223755 
z"/>
<path fill="#000000" opacity="1.000000" stroke="none" 
	d="
M538.973755,702.019897 
	C518.647156,702.001465 498.814484,701.874817 478.984192,702.039551 
	C474.221069,702.079041 472.659332,700.490356 472.686218,695.677490 
	C472.867798,663.180847 472.862946,630.682373 472.718506,598.185425 
	C472.698395,593.660522 474.130066,591.787292 478.703827,591.977417 
	C483.693787,592.184753 488.711243,592.174255 493.697388,591.903137 
	C498.455719,591.644409 500.150543,593.520081 500.118134,598.302551 
	C499.952057,622.799622 500.038757,647.298401 500.025146,671.796570 
	C500.021362,678.640015 500.002655,678.676392 506.927948,678.691711 
	C520.093506,678.720825 533.261414,678.842651 546.423523,678.628540 
	C550.854736,678.556519 552.424011,680.250305 552.194824,684.492065 
	C551.979370,688.481018 551.968018,692.495300 552.138000,696.486816 
	C552.313843,700.616699 550.485413,702.265076 546.466309,702.011719 
	C544.143066,701.865173 541.801697,702.006714 538.973755,702.019897 
z"/>
<path fill="#000000" opacity="1.000000" stroke="none" 
	d="
M383.351776,596.287781 
	C383.375732,621.409485 383.390411,646.057190 383.397766,670.704895 
	C383.400177,678.751831 383.391479,678.741394 391.680511,678.729370 
	C404.337311,678.710938 416.995911,678.825562 429.649872,678.631592 
	C433.698212,678.569519 435.493530,679.853943 435.268677,684.046753 
	C435.037109,688.365051 435.119843,692.705200 435.196899,697.033447 
	C435.254791,700.285217 434.010162,702.032349 430.553955,702.026367 
	C407.572174,701.986572 384.590271,701.973511 361.608490,702.001709 
	C357.919891,702.006226 356.767731,700.209290 356.774353,696.704651 
	C356.836975,663.563599 356.830444,630.422363 356.743347,597.281372 
	C356.733917,593.684814 358.089417,592.054443 361.679962,592.079102 
	C367.341248,592.117981 373.003387,592.009705 378.665009,592.025269 
	C381.182129,592.032227 383.406403,592.548645 383.351776,596.287781 
z"/>
<path fill="#000000" opacity="1.000000" stroke="none" 
	d="
M261.995392,740.023438 
	C265.760895,739.668396 267.947815,741.213013 269.942017,743.857727 
	C274.608673,750.046448 279.574951,756.009277 285.084930,762.894531 
	C286.370331,756.469116 285.855438,751.184692 285.745422,745.977478 
	C285.644379,741.194153 287.960815,740.030090 292.155975,739.947021 
	C296.614716,739.858765 297.346832,742.233398 297.306152,745.946777 
	C297.191315,756.432434 297.339508,766.920898 297.244995,777.406921 
	C297.224152,779.719910 298.266602,782.946106 294.860229,783.710999 
	C291.492310,784.467224 287.986053,784.854919 285.366852,781.341675 
	C281.090576,775.605835 276.577484,770.046143 272.144806,764.427551 
	C271.543182,763.664978 270.828796,762.991394 268.889282,762.392273 
	C268.889282,767.572388 268.979675,772.754578 268.864655,777.932190 
	C268.741730,783.465942 267.579803,784.309387 261.785767,784.146667 
	C258.788879,784.062500 256.959686,783.052856 257.044495,779.808899 
	C257.353180,767.999573 256.558807,756.180847 257.424622,744.372009 
	C257.630219,741.567993 258.590607,739.953735 261.995392,740.023438 
z"/>
<path fill="#000000" opacity="1.000000" stroke="none" 
	d="
M428.939575,777.685181 
	C428.322998,783.533020 425.285065,785.473816 420.131744,783.919617 
	C418.119568,783.312805 417.656982,781.931946 417.656311,780.130493 
	C417.651855,768.134827 417.645752,756.139221 417.642303,744.143555 
	C417.641815,742.390808 417.844757,740.638855 419.982391,740.323059 
	C423.153473,739.854492 426.408295,739.586731 428.732727,742.468567 
	C432.600983,747.264526 436.344757,752.160828 440.203217,756.964844 
	C441.417542,758.476746 442.329681,760.374084 445.087128,761.173340 
	C446.429413,756.070740 445.550415,750.981140 445.713196,745.991028 
	C445.886566,740.676880 446.908600,739.783081 452.310852,739.948486 
	C455.901428,740.058533 457.308228,741.611511 457.271301,745.194214 
	C457.159637,756.022400 457.290070,766.852966 457.218719,777.681824 
	C457.203339,780.018494 458.120300,783.180908 454.603912,783.820251 
	C451.380707,784.406189 448.001587,784.883179 445.505127,781.563293 
	C441.100830,775.706238 436.535248,769.970032 432.004395,764.209106 
	C431.428253,763.476562 431.011322,762.428101 428.948151,762.531677 
	C428.948151,767.395691 428.948151,772.309021 428.939575,777.685181 
z"/>
<path fill="#000000" opacity="1.000000" stroke="none" 
	d="
M717.853943,782.504456 
	C707.451477,777.051819 702.787170,767.553101 705.095703,757.107788 
	C707.106323,748.010315 715.919678,740.445312 725.315186,739.752197 
	C737.025085,738.888306 746.989197,744.559387 750.286560,754.678833 
	C752.853394,762.556213 751.732666,770.197815 746.127747,776.660461 
	C739.663391,784.114075 731.231262,785.421204 722.024719,783.823669 
	C720.727539,783.598511 719.485474,783.055847 717.853943,782.504456 
M716.856262,759.355225 
	C715.749573,766.744568 719.269592,772.576782 725.562988,773.781250 
	C731.983154,775.010071 737.680603,771.240112 739.410583,764.618469 
	C740.951782,758.719299 737.315002,752.379333 731.332642,750.536316 
	C725.156677,748.633606 719.761841,751.687988 716.856262,759.355225 
z"/>
<path fill="#000000" opacity="1.000000" stroke="none" 
	d="
M675.685852,770.761353 
	C677.615601,775.165161 681.327881,778.131653 682.760254,782.443848 
	C677.309082,785.893005 671.290771,784.721985 668.233032,779.752441 
	C667.272827,778.192017 666.232544,776.670715 665.400208,775.043823 
	C663.879395,772.071411 661.260132,771.919006 658.538086,772.370178 
	C655.326355,772.902344 656.312317,775.645813 656.233704,777.609253 
	C656.102478,780.885742 656.399475,784.004028 651.573303,784.121460 
	C645.541809,784.268127 644.670288,783.693359 644.656250,777.537659 
	C644.632324,767.042786 644.827393,756.544495 644.606140,746.054443 
	C644.516418,741.802856 645.918457,739.865723 650.260742,740.013855 
	C656.400024,740.223267 662.567139,739.288757 668.678711,740.717285 
	C674.928650,742.178223 679.958679,745.207886 681.711731,751.696533 
	C683.385071,757.890015 682.375916,763.617981 677.004150,767.933289 
	C676.219360,768.563721 675.556519,769.321411 675.685852,770.761353 
M661.387024,762.648560 
	C662.842651,762.418396 664.349854,762.354675 665.743286,761.923462 
	C668.676697,761.015686 670.765259,759.130676 670.538330,755.845947 
	C670.298889,752.379333 668.032593,750.618164 664.676697,750.232605 
	C663.532471,750.101196 662.370361,750.128357 661.216980,750.072266 
	C658.236816,749.927368 655.690247,750.522034 656.216919,754.281128 
	C656.668152,757.501648 653.912659,762.587708 661.387024,762.648560 
z"/>
<path fill="#000000" opacity="1.000000" stroke="none" 
	d="
M157.943054,763.962158 
	C160.955276,757.068481 163.948074,750.573059 166.607132,743.943848 
	C168.114517,740.185913 170.989517,739.957153 174.291519,739.917175 
	C177.533798,739.877930 179.934952,740.546021 181.379395,744.004517 
	C186.052597,755.193665 191.091476,766.229919 195.794327,777.407166 
	C196.603317,779.329834 199.569702,782.418091 195.876480,783.562744 
	C192.621048,784.571777 188.273392,785.799561 185.434631,781.761108 
	C183.970795,779.678650 184.318695,775.860413 181.108521,775.582153 
	C176.172577,775.154419 171.151001,775.319824 166.197815,775.677490 
	C164.171600,775.823669 163.949036,778.318481 163.192291,779.932861 
	C161.476440,783.593323 155.280457,785.619812 151.774017,783.674255 
	C149.634201,782.487000 150.541092,780.857849 151.180023,779.367554 
	C153.340240,774.328918 155.576630,769.322937 157.943054,763.962158 
M177.266617,762.171753 
	C176.174103,760.087463 176.196930,757.371033 173.799438,755.693970 
	C171.382584,758.607666 170.249664,761.675049 169.916122,765.642456 
	C172.789413,764.826782 176.492615,768.103699 177.266617,762.171753 
z"/>
<path fill="#000000" opacity="1.000000" stroke="none" 
	d="
M489.377869,779.733154 
	C479.363129,770.440796 478.057007,757.201721 485.950836,747.675476 
	C493.459869,738.613586 510.182495,736.955872 519.703857,744.328552 
	C521.350403,745.603638 523.237671,747.119934 521.211487,749.161377 
	C519.245911,751.141907 518.135010,755.593140 513.911621,753.137024 
	C511.119751,751.513428 508.397705,750.065674 505.106659,749.999695 
	C498.250854,749.862305 492.337006,755.514160 492.440033,762.114868 
	C492.546783,768.952515 497.815826,774.081909 504.644073,773.995361 
	C510.293121,773.923767 511.749298,772.617432 511.673279,766.963074 
	C511.622528,763.187622 511.954895,760.525391 516.906006,760.652161 
	C520.850525,760.753174 522.391724,762.182495 522.147827,765.977234 
	C522.041199,767.635864 522.155823,769.308228 522.156494,770.974365 
	C522.159973,779.792908 521.491394,780.903809 513.047363,783.147888 
	C504.885132,785.317200 496.875397,785.291199 489.377869,779.733154 
z"/>
<path fill="#000000" opacity="1.000000" stroke="none" 
	d="
M621.026245,759.446533 
	C618.436218,768.101868 612.988159,771.919800 603.335754,772.202759 
	C595.772522,772.424500 595.573975,772.419983 595.410583,779.554321 
	C595.317749,783.607117 593.108887,784.156372 589.921082,784.109863 
	C586.783081,784.064087 583.776123,784.159790 583.796997,779.658997 
	C583.850952,768.019287 583.816162,756.378906 583.757751,744.739136 
	C583.743713,741.947083 584.828491,740.196228 587.739136,740.140564 
	C594.041870,740.020142 600.367920,739.357727 606.634949,740.578125 
	C617.439880,742.682129 621.605713,748.018616 621.026245,759.446533 
M595.492920,752.125000 
	C594.947571,761.719055 598.809692,765.086914 606.173340,761.438782 
	C608.462219,760.304871 609.646545,758.452637 609.620300,755.907043 
	C609.595581,753.505920 608.355591,751.665771 606.165833,750.971558 
	C602.737427,749.884827 599.174927,749.002869 595.492920,752.125000 
z"/>
<path fill="#000000" opacity="1.000000" stroke="none" 
	d="
M97.689682,778.793213 
	C97.681877,767.337158 97.800034,756.356140 97.610123,745.380371 
	C97.542076,741.447632 99.143471,739.928833 102.873169,740.020142 
	C109.008232,740.170349 115.164101,739.354675 121.271339,740.705383 
	C130.200424,742.680298 135.332764,748.515686 134.994263,756.512756 
	C134.631195,765.089478 128.830460,771.023926 119.744797,772.081360 
	C118.756676,772.196411 117.752419,772.188721 116.755089,772.205994 
	C109.601265,772.329895 109.469452,772.322632 109.217216,779.353516 
	C109.095009,782.760132 107.695549,784.168213 104.350578,784.075195 
	C100.972626,783.981262 97.279495,784.532227 97.689682,778.793213 
M114.803902,762.600891 
	C121.205330,761.565063 123.861557,759.537109 123.310974,755.673767 
	C122.608284,750.742920 118.735565,750.184509 114.733536,750.015869 
	C111.712601,749.888672 108.820648,749.991760 109.198807,754.231995 
	C109.512199,757.746094 107.210083,762.870361 114.803902,762.600891 
z"/>
<path fill="#000000" opacity="1.000000" stroke="none" 
	d="
M807.937500,767.583557 
	C808.345581,777.188599 804.620422,782.398315 795.841492,783.947571 
	C788.850708,785.181213 781.934631,784.525085 775.495667,781.024658 
	C772.755127,779.534790 771.396057,777.976624 773.324097,774.734924 
	C774.969360,771.968506 776.053772,769.416138 780.016907,771.809143 
	C783.457336,773.886475 787.347534,775.013062 791.465393,774.596741 
	C793.319336,774.409302 795.243591,773.851196 795.614197,771.667114 
	C796.022339,769.261719 794.025574,768.568542 792.304321,768.003723 
	C788.993225,766.917236 785.567688,766.164856 782.291321,764.990234 
	C776.516174,762.919861 773.256226,758.766357 773.138733,753.739868 
	C773.013794,748.394226 776.097412,743.889709 781.769287,741.502625 
	C789.279358,738.341858 796.704773,739.231873 804.041016,742.253845 
	C807.857422,743.825928 806.224792,746.381531 805.327820,748.867981 
	C804.357849,751.556580 803.107239,753.250977 799.818420,751.698242 
	C796.506775,750.134705 793.015808,748.864929 789.231628,749.588257 
	C787.596008,749.900879 785.791809,750.414856 785.600220,752.449829 
	C785.406189,754.510803 787.053406,755.296143 788.680542,755.814514 
	C792.162659,756.923828 795.713074,757.828552 799.163513,759.024902 
	C803.226868,760.433777 806.699585,762.607483 807.937500,767.583557 
z"/>
<path fill="#000000" opacity="1.000000" stroke="none" 
	d="
M344.190918,779.648560 
	C343.403290,785.963623 338.850891,783.913391 335.595154,783.973999 
	C332.081116,784.039490 332.070984,781.157654 332.071686,778.573853 
	C332.073700,771.263245 331.854828,763.943420 332.157135,756.645264 
	C332.359406,751.761841 330.860321,749.413330 325.679047,750.109680 
	C321.665833,750.649170 319.331543,749.322510 319.712067,744.647949 
	C319.965210,741.538635 321.278900,740.046753 324.303894,740.038391 
	C333.773041,740.012146 343.242279,740.016235 352.711487,740.015442 
	C356.255920,740.015137 357.103882,742.135315 357.096588,745.255310 
	C357.088837,748.577148 355.736267,750.238770 352.341125,750.097290 
	C351.180481,750.048950 350.008972,750.187195 348.853729,750.096436 
	C345.439728,749.828186 344.095093,751.336548 344.152802,754.761475 
	C344.290009,762.900574 344.203461,771.043518 344.190918,779.648560 
z"/>
<path fill="#000000" opacity="1.000000" stroke="none" 
	d="
M383.233398,784.094238 
	C379.661346,784.022156 378.922699,781.958496 378.923065,779.375061 
	C378.924713,767.729797 378.973480,756.084595 378.969360,744.439331 
	C378.967834,740.082581 381.849609,739.886475 385.097839,739.945251 
	C388.311768,740.003479 391.202301,740.193909 391.186218,744.560974 
	C391.143341,756.206116 391.184937,767.851562 391.190247,779.496887 
	C391.192780,785.111145 387.005859,783.910339 383.233398,784.094238 
z"/>
<path fill="#000000" opacity="1.000000" stroke="none" 
	d="
M231.072510,745.323608 
	C231.073151,756.588989 230.927353,767.394531 231.142227,778.192871 
	C231.235031,782.857422 229.273026,784.213562 224.880585,784.211487 
	C220.616165,784.209412 218.889526,782.762268 218.967010,778.403442 
	C219.161957,767.437683 219.076294,756.466553 219.065674,745.497620 
	C219.062531,742.251892 219.958603,739.972107 223.803741,740.013306 
	C227.339874,740.051208 231.202362,739.406189 231.072510,745.323608 
z"/>
</svg>