<svg xmlns="http://www.w3.org/2000/svg" viewBox="0 0 2034 2342" role="img" aria-label="Valley Painting Pros icon"><title>Valley Painting Pros</title>
<path fill="#A6542E" opacity="1.000000" stroke="none" 
	d="
M703.973755,1184.067383 
	C718.162598,1193.934082 732.376709,1203.764648 746.534546,1213.675537 
	C770.005737,1230.105957 793.338013,1246.737915 816.973511,1262.927734 
	C821.984619,1266.360229 823.759827,1270.088379 823.724792,1276.041626 
	C823.503235,1313.693237 823.589294,1351.347046 823.666077,1389.000000 
	C823.713623,1412.323242 824.178955,1435.649170 823.907288,1458.967529 
	C823.824951,1466.031250 825.999878,1470.493042 831.850037,1474.610840 
	C874.076477,1504.333496 916.060364,1534.400513 958.126099,1564.351440 
	C968.437378,1571.693237 978.611328,1579.244263 989.158386,1586.231201 
	C993.914246,1589.381714 995.491394,1593.064331 995.453491,1598.624756 
	C995.115112,1648.268677 995.015747,1697.914307 994.854309,1747.559448 
	C994.830872,1754.764648 994.851135,1761.970093 994.851135,1771.382690 
	C987.777283,1766.647827 982.544678,1763.306274 977.478943,1759.728516 
	C944.551270,1736.473511 911.790161,1712.980347 878.727600,1689.919189 
	C823.256775,1651.228394 767.651611,1612.729736 712.009338,1574.285522 
	C660.751831,1538.871094 609.394775,1503.600220 558.004333,1468.378906 
	C553.363159,1465.198120 550.372070,1462.134888 550.393738,1455.734009 
	C550.692078,1367.768921 550.687744,1279.802979 551.683350,1191.217285 
	C556.839233,1197.765991 556.507874,1206.716797 563.170837,1213.312988 
	C566.837097,1216.942505 568.947998,1220.223511 574.825806,1220.216187 
	C582.877014,1220.206177 586.578613,1223.767578 588.797546,1231.750488 
	C589.582031,1234.572632 589.876648,1237.594482 589.949585,1240.536255 
	C590.060913,1245.028198 591.784363,1248.121338 596.588379,1249.682617 
	C598.726624,1248.443970 601.130310,1247.315796 603.230347,1245.773926 
	C606.496277,1243.376221 610.054688,1244.794922 610.875427,1247.275146 
	C613.887268,1256.377197 622.394348,1257.531128 628.755310,1261.272827 
	C632.116516,1260.076660 635.176697,1259.170044 638.074036,1257.893799 
	C640.071411,1257.013794 642.675354,1256.062622 643.566895,1254.379639 
	C646.819580,1248.239990 654.224548,1244.077393 652.667603,1235.509033 
	C652.424072,1234.168579 653.876282,1232.520020 655.094421,1229.773804 
	C659.119934,1235.292236 661.363892,1238.368530 662.553345,1239.999146 
	C674.120728,1238.939819 684.479675,1237.991089 695.190552,1237.010254 
	C694.946472,1235.372314 694.585938,1234.113281 694.599670,1232.858398 
	C694.696899,1223.956299 693.765076,1214.851685 695.351318,1206.213989 
	C696.756592,1198.562012 700.989258,1191.429321 703.973755,1184.067383 
z"/>
<path fill="#B45A33" opacity="1.000000" stroke="none" 
	d="
M1503.133179,1279.988037 
	C1503.356323,1283.958862 1503.764404,1287.929077 1503.774414,1291.900513 
	C1503.877319,1332.881714 1503.822144,1373.863647 1504.026367,1414.844238 
	C1504.092773,1428.151367 1504.610107,1441.464478 1505.278076,1454.756958 
	C1505.599976,1461.163696 1502.946533,1465.080688 1497.781250,1468.705688 
	C1424.705933,1519.990112 1351.761597,1571.461304 1278.781616,1622.881714 
	C1265.166382,1632.474731 1251.539429,1642.051270 1237.903809,1651.615356 
	C1235.776245,1653.107422 1233.572266,1654.490479 1229.779175,1656.997559 
	C1229.524048,1651.779785 1229.171143,1647.998413 1229.180298,1644.217773 
	C1229.280396,1602.910034 1229.575317,1561.602173 1229.543823,1520.294678 
	C1229.502319,1465.989990 1229.095215,1411.685547 1229.084351,1357.380981 
	C1229.078735,1329.731812 1229.672974,1302.083008 1229.801636,1274.433105 
	C1229.823486,1269.745605 1230.918945,1266.522949 1235.097778,1263.634277 
	C1269.619995,1239.768799 1303.953247,1215.630005 1339.112915,1192.225342 
	C1339.149414,1195.661621 1338.749146,1198.592407 1337.608032,1201.198608 
	C1335.770874,1205.394775 1333.201294,1209.276855 1331.462158,1213.505859 
	C1330.878784,1214.924561 1331.885132,1216.997192 1332.164917,1218.770874 
	C1334.139526,1218.389404 1336.245728,1218.313354 1338.049805,1217.536133 
	C1339.682373,1216.833008 1340.985474,1215.364746 1343.259277,1213.589233 
	C1350.350464,1222.551270 1356.843750,1231.182373 1363.826538,1239.397461 
	C1367.144043,1243.300293 1371.130493,1248.879517 1375.282715,1249.324463 
	C1382.260498,1250.072021 1387.782837,1252.908569 1393.670166,1255.772583 
	C1395.993530,1256.902832 1398.698975,1257.900146 1401.208740,1257.850952 
	C1405.634155,1257.764282 1408.727661,1259.557495 1411.669312,1262.577393 
	C1416.154297,1267.181885 1421.052856,1268.389038 1427.872803,1266.713501 
	C1434.001831,1265.207764 1439.813354,1264.077393 1445.453613,1260.808472 
	C1449.204468,1258.634644 1454.567383,1257.557983 1458.828247,1258.269287 
	C1470.779541,1260.264282 1483.239380,1262.141113 1490.542114,1273.792603 
	C1493.550171,1278.592041 1497.701294,1280.432983 1503.133179,1279.988037 
z"/>
<path fill="#BF9460" opacity="1.000000" stroke="none" 
	d="
M869.805115,675.675171 
	C873.046387,643.739319 885.403992,616.359314 903.933899,591.721558 
	C922.594666,566.909851 946.408325,548.295959 975.928711,538.353027 
	C1035.356567,518.336975 1089.447632,528.006836 1136.928955,569.832703 
	C1168.312256,597.477966 1185.675781,632.938171 1191.458252,673.762146 
	C1197.428833,715.913208 1187.697021,755.082642 1164.637695,790.880737 
	C1139.728394,829.550903 1104.947998,853.943237 1059.552002,862.234985 
	C1012.012512,870.918335 968.589478,860.713318 931.180481,830.015564 
	C886.148132,793.062012 866.242859,744.422668 868.530579,686.472778 
	C868.661255,683.161987 869.324768,679.872131 869.805115,675.675171 
z"/>
<path fill="#C29D77" opacity="1.000000" stroke="none" 
	d="
M1085.636963,1087.854858 
	C1090.632690,1083.958130 1095.628418,1080.061401 1101.329102,1076.868896 
	C1103.944824,1085.656982 1106.316040,1093.550293 1099.158936,1100.865723 
	C1097.658691,1102.399048 1098.101440,1107.902100 1099.717163,1109.917114 
	C1101.984741,1112.744995 1105.975708,1114.770142 1109.609131,1115.800415 
	C1116.667725,1117.802124 1122.818481,1120.112549 1124.519531,1128.403076 
	C1124.875000,1130.135864 1126.967529,1131.460327 1128.061279,1133.104736 
	C1130.060303,1136.110474 1132.641479,1138.992188 1133.658813,1142.328369 
	C1135.331421,1147.813843 1138.374146,1151.685547 1143.337158,1154.277832 
	C1147.456421,1156.429443 1151.770996,1158.307129 1155.589111,1160.907959 
	C1159.649902,1163.673950 1163.875977,1166.639038 1166.860718,1170.436279 
	C1171.028442,1175.738525 1173.812866,1181.805298 1168.846680,1188.586182 
	C1166.048950,1192.406250 1163.806274,1196.632690 1161.124634,1200.982422 
	C1168.461060,1204.085938 1176.547974,1206.656982 1179.807617,1215.417236 
	C1180.010498,1215.962280 1181.630249,1215.980103 1182.590698,1216.243164 
	C1181.122192,1217.578857 1179.874512,1219.453247 1178.148438,1220.160522 
	C1168.464233,1224.129272 1167.406982,1231.624268 1167.423828,1241.091675 
	C1167.690186,1390.648071 1167.534912,1540.205200 1167.818604,1689.761597 
	C1167.835693,1698.798462 1165.056641,1704.320435 1157.696289,1709.484131 
	C1125.826660,1731.842773 1094.376465,1754.799194 1062.762817,1777.522705 
	C1061.971191,1778.091675 1061.053345,1778.484741 1060.040649,1779.045288 
	C1056.409302,1776.638794 1058.000854,1772.977173 1057.996826,1769.978394 
	C1057.907715,1702.694580 1057.937256,1635.410645 1057.941895,1568.126709 
	C1057.952271,1417.903564 1058.020142,1267.680420 1057.804688,1117.457642 
	C1057.793335,1109.604004 1059.489258,1104.189331 1066.709351,1100.375244 
	C1072.253540,1097.446411 1077.169800,1093.328369 1083.184082,1090.314697 
	C1085.990112,1096.206543 1089.627930,1098.217896 1095.555786,1096.931519 
	C1094.419312,1090.890869 1091.758789,1087.458984 1085.636963,1087.854858 
z"/>
<path fill="#B27D55" opacity="1.000000" stroke="none" 
	d="
M722.862793,1110.402832 
	C719.386658,1108.153076 715.910461,1105.903442 712.178467,1102.332764 
	C711.819092,1096.854126 714.739014,1094.811035 717.357788,1092.150757 
	C721.667419,1087.772705 725.651550,1082.902954 728.870605,1077.683838 
	C730.943542,1074.322998 731.190979,1069.928345 727.327820,1066.892090 
	C723.580994,1063.947266 719.460022,1063.225830 715.499878,1066.331787 
	C712.388489,1068.771973 709.606445,1071.632935 706.685852,1074.315552 
	C701.670959,1078.921875 696.662231,1083.534790 691.650940,1088.145020 
	C689.248962,1086.617188 686.846985,1085.089355 684.187622,1082.187744 
	C684.489136,1077.065674 685.047974,1073.317261 685.602295,1069.598999 
	C677.759583,1068.064209 677.759583,1068.064209 674.072327,1075.635742 
	C656.369751,1063.224976 638.619019,1050.882202 620.976990,1038.385986 
	C599.778687,1023.370850 578.733643,1008.138733 557.480469,993.202454 
	C552.730774,989.864441 550.338318,986.232300 550.358704,980.078369 
	C550.565979,917.442993 550.472534,854.806763 550.499573,792.170715 
	C550.500549,789.961731 550.879578,787.752808 551.241272,783.813171 
	C559.136230,789.138184 566.033997,793.503296 572.629272,798.285583 
	C615.768982,829.566284 658.863831,860.909058 701.933105,892.286682 
	C743.654724,922.682312 785.333130,953.137390 827.012207,983.591370 
	C829.892395,985.695740 832.620422,988.008545 835.720825,991.511597 
	C833.903137,997.986023 831.886536,1003.218689 829.619507,1008.340637 
	C828.554626,1010.746460 827.566040,1013.791809 825.587036,1015.087341 
	C814.192566,1022.546570 804.820251,1034.519897 788.768188,1032.049072 
	C782.315918,1031.055786 778.897156,1035.098511 776.886169,1040.508423 
	C775.737427,1043.598633 775.351868,1046.978027 774.145813,1050.039429 
	C773.350830,1052.057617 771.951111,1055.050537 770.400085,1055.339355 
	C764.875122,1056.368164 764.648010,1061.028320 762.522217,1064.609253 
	C759.749023,1069.280762 760.440857,1072.970459 763.151733,1077.459595 
	C764.348511,1079.441528 763.841125,1083.900146 762.304321,1085.657837 
	C760.909119,1087.253296 757.046509,1087.119873 754.310608,1086.981079 
	C752.073303,1086.867676 749.924744,1085.506470 747.681702,1084.903442 
	C741.458130,1083.230103 738.538940,1084.972168 736.093994,1090.827759 
	C733.816040,1096.283569 731.280762,1101.671753 728.330017,1106.784546 
	C727.352478,1108.478271 724.732056,1109.223755 722.862793,1110.402832 
z"/>
<path fill="#B5815A" opacity="1.000000" stroke="none" 
	d="
M1267.597046,954.902588 
	C1274.343506,949.672607 1280.949097,944.248108 1287.860962,939.246643 
	C1316.024902,918.867126 1344.282593,898.617126 1373.874023,878.216064 
	C1382.649414,882.357361 1390.324951,886.205688 1397.376221,890.976562 
	C1402.661987,894.552856 1407.638916,894.617554 1413.185181,892.895447 
	C1411.806274,878.136780 1411.806274,878.136780 1420.458984,874.754944 
	C1420.945679,875.507324 1421.576050,876.242981 1421.947632,877.091858 
	C1427.615601,890.034790 1427.476807,889.745483 1440.517944,883.916809 
	C1448.477661,880.359314 1456.545898,880.345703 1463.701660,886.952209 
	C1462.221191,893.942932 1453.744263,900.283752 1462.644043,907.884644 
	C1463.876831,907.688354 1466.676514,907.790527 1466.870117,907.129272 
	C1469.659180,897.607544 1478.972534,894.332336 1484.877686,887.856628 
	C1485.316284,887.375549 1485.501831,886.668213 1485.925415,886.168091 
	C1487.845703,883.900574 1489.471313,881.188110 1491.831665,879.531555 
	C1496.033813,876.582397 1498.294556,872.972595 1497.998657,867.848694 
	C1497.795410,864.332275 1499.029297,862.035278 1502.860962,861.788696 
	C1503.192261,870.340515 1503.710938,878.890198 1503.809204,887.444702 
	C1503.942261,899.005188 1503.752319,910.569458 1502.727051,923.054077 
	C1496.533936,923.775085 1493.767578,926.023499 1494.039551,931.508667 
	C1494.320068,937.170044 1496.200684,938.965454 1503.265137,940.051697 
	C1503.549561,948.117615 1503.833984,956.183472 1503.411377,965.734497 
	C1502.112915,971.298767 1501.521606,975.377930 1500.961548,979.241821 
	C1485.726318,980.943176 1485.719727,980.943298 1486.041016,996.031555 
	C1486.075928,997.672729 1486.243530,999.311096 1486.349609,1000.950806 
	C1479.203857,1006.373413 1472.211670,1012.013611 1464.885132,1017.179749 
	C1437.931763,1036.185059 1410.867798,1055.033203 1382.452148,1073.959717 
	C1378.298584,1071.319214 1375.270508,1068.882324 1372.832520,1065.954224 
	C1367.402466,1059.432739 1357.606934,1055.710693 1349.442993,1058.286255 
	C1351.560059,1063.111084 1352.849487,1068.451416 1355.912476,1072.424561 
	C1359.770386,1077.429077 1361.620117,1082.723511 1362.285645,1088.727295 
	C1358.951904,1091.252319 1355.618164,1093.777344 1351.007080,1096.053467 
	C1346.098511,1087.319946 1338.944580,1081.783936 1332.387329,1075.908203 
	C1330.766602,1074.456055 1326.155151,1074.240356 1324.508057,1075.513184 
	C1322.880249,1076.771362 1322.412964,1080.832031 1322.993652,1083.296387 
	C1323.626099,1085.980347 1326.047974,1088.243408 1327.692505,1090.688110 
	C1331.128418,1095.795776 1334.566406,1100.902222 1338.003662,1106.009155 
	C1322.638794,1117.027100 1307.273926,1128.044922 1291.096802,1138.432983 
	C1291.200928,1135.077759 1292.097046,1132.345337 1293.039429,1129.628906 
	C1293.894287,1127.165161 1296.200928,1124.092163 1295.433472,1122.376343 
	C1292.532715,1115.890503 1296.159668,1112.364746 1300.253906,1108.753662 
	C1304.687866,1104.843140 1305.692749,1099.718628 1302.377319,1095.363281 
	C1297.799438,1089.349487 1298.117676,1082.273926 1296.421631,1075.685547 
	C1294.714111,1069.052979 1298.390869,1061.647095 1304.430298,1060.443481 
	C1314.943604,1058.348267 1316.836426,1050.766113 1317.988892,1042.211426 
	C1318.328247,1039.691528 1318.610352,1037.163940 1318.922485,1034.608398 
	C1321.319824,1034.314453 1322.981445,1034.225708 1324.588501,1033.881592 
	C1326.200928,1033.536255 1327.770996,1032.972900 1329.338379,1032.442261 
	C1335.935303,1030.208862 1338.130127,1027.795654 1337.866577,1023.120911 
	C1337.393433,1014.726990 1334.428345,1009.813965 1328.791138,1008.084229 
	C1319.336060,1005.182922 1314.179932,1008.546387 1312.169556,1019.069763 
	C1311.642700,1021.827637 1311.473755,1024.653931 1311.116577,1027.649292 
	C1300.558838,1027.275146 1306.579712,1019.659851 1304.259155,1016.268982 
	C1300.027832,1012.632751 1295.341064,1009.095459 1292.884644,1004.393127 
	C1291.077881,1000.934326 1291.934814,995.943481 1292.068237,991.649658 
	C1292.214600,986.939636 1291.286133,983.239075 1286.532349,981.043640 
	C1284.495361,980.102966 1283.116821,977.801575 1281.117798,976.702759 
	C1272.462280,971.944824 1268.328491,964.509949 1267.597046,954.902588 
z"/>
<path fill="#B88962" opacity="1.000000" stroke="none" 
	d="
M1266.912109,955.122620 
	C1268.328491,964.509949 1272.462280,971.944824 1281.117798,976.702759 
	C1283.116821,977.801575 1284.495361,980.102966 1286.532349,981.043640 
	C1291.286133,983.239075 1292.214600,986.939636 1292.068237,991.649658 
	C1291.934814,995.943481 1291.077881,1000.934326 1292.884644,1004.393127 
	C1295.341064,1009.095459 1300.027832,1012.632751 1304.259155,1016.268982 
	C1306.579712,1019.659851 1300.558838,1027.275146 1311.116577,1027.649292 
	C1311.473755,1024.653931 1311.642700,1021.827637 1312.169556,1019.069763 
	C1314.179932,1008.546387 1319.336060,1005.182922 1328.791138,1008.084229 
	C1334.428345,1009.813965 1337.393433,1014.726990 1337.866577,1023.120911 
	C1338.130127,1027.795654 1335.935303,1030.208862 1329.338379,1032.442261 
	C1327.770996,1032.972900 1326.200928,1033.536255 1324.588501,1033.881592 
	C1322.981445,1034.225708 1321.319824,1034.314453 1318.922485,1034.608398 
	C1318.610352,1037.163940 1318.328247,1039.691528 1317.988892,1042.211426 
	C1316.836426,1050.766113 1314.943604,1058.348267 1304.430298,1060.443481 
	C1298.390869,1061.647095 1294.714111,1069.052979 1296.421631,1075.685547 
	C1298.117676,1082.273926 1297.799438,1089.349487 1302.377319,1095.363281 
	C1305.692749,1099.718628 1304.687866,1104.843140 1300.253906,1108.753662 
	C1296.159668,1112.364746 1292.532715,1115.890503 1295.433472,1122.376343 
	C1296.200928,1124.092163 1293.894287,1127.165161 1293.039429,1129.628906 
	C1292.097046,1132.345337 1291.200928,1135.077759 1290.415161,1138.679688 
	C1279.740479,1147.586914 1269.020264,1155.735596 1258.103516,1163.611938 
	C1248.892212,1170.257935 1239.463623,1176.603271 1230.109009,1183.049561 
	C1226.620972,1185.453247 1223.070312,1187.765747 1218.565674,1189.568359 
	C1216.096680,1186.141602 1215.828003,1184.372803 1219.126221,1181.662964 
	C1226.900635,1175.275391 1224.872070,1158.675049 1215.828735,1154.412476 
	C1206.946777,1150.226074 1202.120117,1143.079712 1199.357544,1134.477661 
	C1196.088257,1124.297607 1187.905640,1117.793945 1182.128052,1109.523560 
	C1178.802856,1104.763550 1174.135376,1100.962646 1170.312012,1096.523438 
	C1166.453125,1092.043091 1163.776489,1085.761841 1159.002441,1083.024902 
	C1150.669312,1078.247559 1144.473267,1071.499390 1138.113037,1064.845947 
	C1135.301270,1061.904541 1133.952881,1057.564087 1131.940186,1053.858765 
	C1147.611572,1042.093750 1163.197144,1030.212402 1178.973267,1018.589661 
	C1206.564087,998.262634 1234.267822,978.088928 1261.943359,957.877197 
	C1263.277100,956.903198 1264.794922,956.181641 1266.912109,955.122620 
z"/>
<path fill="#BA9066" opacity="1.000000" stroke="none" 
	d="
M990.418335,1103.765381 
	C991.763306,1105.385620 993.108337,1107.005737 993.802612,1109.541870 
	C992.195679,1113.320190 991.457703,1115.935547 988.983704,1118.396362 
	C984.215027,1123.139648 977.540894,1126.528320 975.363342,1134.275635 
	C954.733459,1155.168335 934.699219,1175.768921 914.675171,1196.379639 
	C913.986938,1197.088013 913.450928,1197.944702 912.760132,1198.650024 
	C903.780396,1207.818359 894.785522,1216.971924 885.794495,1226.129272 
	C865.950928,1212.403076 846.033447,1198.781860 826.294128,1184.907227 
	C816.027893,1177.691162 806.076294,1170.027344 795.951416,1161.099609 
	C797.757568,1154.353271 798.967834,1148.742554 801.545776,1143.852783 
	C810.450745,1126.962158 820.086060,1110.453613 827.628784,1092.865234 
	C828.019165,1091.955078 828.514587,1091.078979 829.049438,1090.243652 
	C833.322083,1083.569702 837.506897,1076.835693 841.936584,1070.267334 
	C845.814514,1064.516968 848.888000,1057.438599 854.227722,1053.616455 
	C866.976868,1044.490479 869.955505,1031.404785 872.182922,1017.532715 
	C879.304138,1022.346252 886.570618,1026.959839 893.520935,1032.008667 
	C920.924316,1051.915161 948.237366,1071.946045 975.557251,1091.967163 
	C978.769165,1094.321045 981.816101,1096.899902 985.551392,1100.477905 
	C987.581604,1102.309326 988.999939,1103.037354 990.418335,1103.765381 
z"/>
<path fill="#C39F78" opacity="1.000000" stroke="none" 
	d="
M885.846741,1227.054932 
	C894.785522,1216.971924 903.780396,1207.818359 912.760132,1198.650024 
	C913.450928,1197.944702 913.986938,1197.088013 914.675171,1196.379639 
	C934.699219,1175.768921 954.733459,1155.168335 975.923462,1134.667480 
	C982.439209,1141.080078 988.041077,1147.228271 986.222046,1156.636230 
	C985.950256,1158.041992 986.858032,1159.941284 987.742554,1161.262451 
	C993.788940,1170.293945 992.346252,1180.470215 991.770996,1190.260742 
	C990.872437,1205.553345 983.213867,1220.665405 991.735596,1236.167480 
	C993.281311,1238.979248 991.706055,1243.382568 992.104919,1246.992188 
	C992.374451,1249.431763 993.578857,1251.768188 994.365112,1254.150757 
	C994.425415,1254.972534 994.485779,1255.794189 993.799561,1257.777832 
	C992.703796,1261.174194 991.996521,1263.420288 992.069153,1265.640869 
	C992.339905,1273.921021 991.494263,1281.793945 988.031006,1289.599487 
	C984.547607,1297.450684 987.786499,1319.114746 992.554688,1326.540039 
	C993.019836,1327.264160 994.175537,1327.544800 995.010742,1328.031372 
	C995.176270,1334.074219 995.341797,1340.117065 994.575195,1347.088135 
	C988.147766,1349.893188 982.652344,1351.769897 976.989807,1353.703613 
	C975.506470,1359.452637 974.187012,1365.581665 972.320740,1371.539307 
	C970.055603,1378.770630 968.558777,1380.076538 960.905640,1379.879883 
	C953.764526,1379.696533 948.035767,1382.407715 942.593506,1386.446777 
	C937.295410,1390.378662 932.024048,1394.349365 926.653564,1398.180298 
	C922.317871,1401.273438 918.376099,1400.521118 916.009460,1395.700928 
	C913.714478,1391.026733 912.127686,1386.004883 910.167053,1380.974731 
	C911.737061,1379.877319 912.697144,1378.742310 913.862549,1378.462524 
	C927.649841,1375.152588 927.658020,1375.186035 921.326904,1362.630493 
	C920.877808,1361.739868 920.366760,1360.875122 919.984924,1359.956665 
	C917.289978,1353.473511 912.622437,1350.894531 905.793945,1352.549194 
	C900.506836,1361.897705 895.916809,1365.089844 886.657288,1365.937988 
	C886.467712,1361.650757 886.123169,1357.363770 886.112549,1353.076172 
	C886.009460,1311.377686 885.962158,1269.679199 885.846741,1227.054932 
z"/>
<path fill="#AB5630" opacity="1.000000" stroke="none" 
	d="
M1503.385132,1279.082031 
	C1497.701294,1280.432983 1493.550171,1278.592041 1490.542114,1273.792603 
	C1483.239380,1262.141113 1470.779541,1260.264282 1458.828247,1258.269287 
	C1454.567383,1257.557983 1449.204468,1258.634644 1445.453613,1260.808472 
	C1439.813354,1264.077393 1434.001831,1265.207764 1427.872803,1266.713501 
	C1421.052856,1268.389038 1416.154297,1267.181885 1411.669312,1262.577393 
	C1408.727661,1259.557495 1405.634155,1257.764282 1401.208740,1257.850952 
	C1398.698975,1257.900146 1395.993530,1256.902832 1393.670166,1255.772583 
	C1387.782837,1252.908569 1382.260498,1250.072021 1375.282715,1249.324463 
	C1371.130493,1248.879517 1367.144043,1243.300293 1363.826538,1239.397461 
	C1356.843750,1231.182373 1350.350464,1222.551270 1343.259277,1213.589233 
	C1340.985474,1215.364746 1339.682373,1216.833008 1338.049805,1217.536133 
	C1336.245728,1218.313354 1334.139526,1218.389404 1332.164917,1218.770874 
	C1331.885132,1216.997192 1330.878784,1214.924561 1331.462158,1213.505859 
	C1333.201294,1209.276855 1335.770874,1205.394775 1337.608032,1201.198608 
	C1338.749146,1198.592407 1339.149414,1195.661621 1339.804077,1192.041382 
	C1343.574829,1188.097412 1347.256836,1184.750366 1351.298950,1181.917358 
	C1385.550049,1157.911133 1419.866943,1133.998657 1455.575195,1110.051636 
	C1457.905396,1110.415527 1459.007324,1110.575073 1459.715332,1111.188843 
	C1466.757080,1117.292236 1466.682373,1117.245483 1473.373047,1111.703979 
	C1475.647461,1109.820312 1478.096069,1107.913818 1480.790039,1106.812622 
	C1489.915405,1103.082642 1489.978394,1103.218628 1489.996338,1093.780518 
	C1490.001343,1091.115967 1489.949097,1088.451416 1489.923096,1085.786865 
	C1491.517700,1084.527954 1493.112305,1083.269043 1495.572266,1082.500732 
	C1498.587646,1084.673218 1500.737671,1086.355103 1502.887695,1088.036865 
	C1503.087402,1094.755249 1503.287231,1101.473633 1502.523682,1109.104492 
	C1496.215088,1111.042847 1493.675537,1114.364746 1494.078735,1119.701660 
	C1494.483521,1125.059082 1497.552979,1127.879395 1502.969360,1128.051514 
	C1503.231445,1133.329102 1503.718140,1138.606445 1503.720703,1143.884155 
	C1503.742798,1188.648071 1503.676758,1233.412109 1503.385132,1279.082031 
z"/>
<path fill="#A2512D" opacity="1.000000" stroke="none" 
	d="
M703.623413,1183.497192 
	C700.989258,1191.429321 696.756592,1198.562012 695.351318,1206.213989 
	C693.765076,1214.851685 694.696899,1223.956299 694.599670,1232.858398 
	C694.585938,1234.113281 694.946472,1235.372314 695.190552,1237.010254 
	C684.479675,1237.991089 674.120728,1238.939819 662.553345,1239.999146 
	C661.363892,1238.368530 659.119934,1235.292236 655.094421,1229.773804 
	C653.876282,1232.520020 652.424072,1234.168579 652.667603,1235.509033 
	C654.224548,1244.077393 646.819580,1248.239990 643.566895,1254.379639 
	C642.675354,1256.062622 640.071411,1257.013794 638.074036,1257.893799 
	C635.176697,1259.170044 632.116516,1260.076660 628.755310,1261.272827 
	C622.394348,1257.531128 613.887268,1256.377197 610.875427,1247.275146 
	C610.054688,1244.794922 606.496277,1243.376221 603.230347,1245.773926 
	C601.130310,1247.315796 598.726624,1248.443970 596.588379,1249.682617 
	C591.784363,1248.121338 590.060913,1245.028198 589.949585,1240.536255 
	C589.876648,1237.594482 589.582031,1234.572632 588.797546,1231.750488 
	C586.578613,1223.767578 582.877014,1220.206177 574.825806,1220.216187 
	C568.947998,1220.223511 566.837097,1216.942505 563.170837,1213.312988 
	C556.507874,1206.716797 556.839233,1197.765991 552.012512,1190.345215 
	C551.141235,1188.807861 550.625916,1187.522461 550.626648,1186.237183 
	C550.645325,1152.761475 550.717590,1119.285767 551.916931,1084.913086 
	C555.790955,1083.879150 558.528625,1083.742065 561.266296,1083.604980 
	C563.582886,1084.836182 566.066101,1085.831421 568.191528,1087.333130 
	C613.242859,1119.163452 658.254028,1151.050781 703.623413,1183.497192 
M577.997131,1208.854858 
	C578.161926,1204.018677 577.399292,1200.063477 570.386780,1201.535767 
	C574.362427,1205.299316 568.938232,1212.814819 576.977722,1215.628418 
	C577.404236,1213.442993 577.697205,1211.942017 577.997131,1208.854858 
z"/>
<path fill="#B5815A" opacity="1.000000" stroke="none" 
	d="
M871.830994,1016.983887 
	C869.955505,1031.404785 866.976868,1044.490479 854.227722,1053.616455 
	C848.888000,1057.438599 845.814514,1064.516968 841.936584,1070.267334 
	C837.506897,1076.835693 833.322083,1083.569702 829.049438,1090.243652 
	C828.514587,1091.078979 828.019165,1091.955078 827.628784,1092.865234 
	C820.086060,1110.453613 810.450745,1126.962158 801.545776,1143.852783 
	C798.967834,1148.742554 797.757568,1154.353271 795.805176,1160.483398 
	C787.780518,1156.265991 779.695923,1151.449951 771.998047,1146.079468 
	C755.753540,1134.746216 739.711426,1123.122681 723.224548,1111.010498 
	C724.732056,1109.223755 727.352478,1108.478271 728.330017,1106.784546 
	C731.280762,1101.671753 733.816040,1096.283569 736.093994,1090.827759 
	C738.538940,1084.972168 741.458130,1083.230103 747.681702,1084.903442 
	C749.924744,1085.506470 752.073303,1086.867676 754.310608,1086.981079 
	C757.046509,1087.119873 760.909119,1087.253296 762.304321,1085.657837 
	C763.841125,1083.900146 764.348511,1079.441528 763.151733,1077.459595 
	C760.440857,1072.970459 759.749023,1069.280762 762.522217,1064.609253 
	C764.648010,1061.028320 764.875122,1056.368164 770.400085,1055.339355 
	C771.951111,1055.050537 773.350830,1052.057617 774.145813,1050.039429 
	C775.351868,1046.978027 775.737427,1043.598633 776.886169,1040.508423 
	C778.897156,1035.098511 782.315918,1031.055786 788.768188,1032.049072 
	C804.820251,1034.519897 814.192566,1022.546570 825.587036,1015.087341 
	C827.566040,1013.791809 828.554626,1010.746460 829.619507,1008.340637 
	C831.886536,1003.218689 833.903137,997.986023 836.157349,992.013184 
	C848.021179,999.630127 859.750122,1008.032593 871.830994,1016.983887 
z"/>
<path fill="#C8A682" opacity="1.000000" stroke="none" 
	d="
M886.430542,1366.858398 
	C895.916809,1365.089844 900.506836,1361.897705 905.793945,1352.549194 
	C912.622437,1350.894531 917.289978,1353.473511 919.984924,1359.956665 
	C920.366760,1360.875122 920.877808,1361.739868 921.326904,1362.630493 
	C927.658020,1375.186035 927.649841,1375.152588 913.862549,1378.462524 
	C912.697144,1378.742310 911.737061,1379.877319 910.167053,1380.974731 
	C912.127686,1386.004883 913.714478,1391.026733 916.009460,1395.700928 
	C918.376099,1400.521118 922.317871,1401.273438 926.653564,1398.180298 
	C932.024048,1394.349365 937.295410,1390.378662 942.593506,1386.446777 
	C948.035767,1382.407715 953.764526,1379.696533 960.905640,1379.879883 
	C968.558777,1380.076538 970.055603,1378.770630 972.320740,1371.539307 
	C974.187012,1365.581665 975.506470,1359.452637 976.989807,1353.703613 
	C982.652344,1351.769897 988.147766,1349.893188 994.342102,1347.964600 
	C995.293152,1350.543823 995.766235,1353.175049 995.764648,1355.806030 
	C995.737549,1401.716919 995.659607,1447.627808 995.561646,1493.538696 
	C995.555420,1496.459106 995.294434,1499.378906 995.062439,1504.133423 
	C990.424255,1501.367554 986.741333,1499.458740 983.363037,1497.111450 
	C953.342224,1476.251953 923.472534,1455.172729 893.301208,1434.534180 
	C887.983398,1430.896606 885.784607,1427.055786 885.930969,1420.669312 
	C886.334839,1403.046265 886.153625,1385.409912 886.430542,1366.858398 
z"/>
<path fill="#BD956E" opacity="1.000000" stroke="none" 
	d="
M1131.260742,1053.983398 
	C1133.952881,1057.564087 1135.301270,1061.904541 1138.113037,1064.845947 
	C1144.473267,1071.499390 1150.669312,1078.247559 1159.002441,1083.024902 
	C1163.776489,1085.761841 1166.453125,1092.043091 1170.312012,1096.523438 
	C1174.135376,1100.962646 1178.802856,1104.763550 1182.128052,1109.523560 
	C1187.905640,1117.793945 1196.088257,1124.297607 1199.357544,1134.477661 
	C1202.120117,1143.079712 1206.946777,1150.226074 1215.828735,1154.412476 
	C1224.872070,1158.675049 1226.900635,1175.275391 1219.126221,1181.662964 
	C1215.828003,1184.372803 1216.096680,1186.141602 1217.868896,1189.712402 
	C1215.269897,1192.833252 1212.385376,1195.258789 1208.394165,1197.961060 
	C1206.631104,1198.498901 1206.173706,1198.958374 1205.915283,1199.615967 
	C1198.509033,1204.924561 1191.102661,1210.233032 1183.143555,1215.892334 
	C1181.630249,1215.980103 1180.010498,1215.962280 1179.807617,1215.417236 
	C1176.547974,1206.656982 1168.461060,1204.085938 1161.124634,1200.982422 
	C1163.806274,1196.632690 1166.048950,1192.406250 1168.846680,1188.586182 
	C1173.812866,1181.805298 1171.028442,1175.738525 1166.860718,1170.436279 
	C1163.875977,1166.639038 1159.649902,1163.673950 1155.589111,1160.907959 
	C1151.770996,1158.307129 1147.456421,1156.429443 1143.337158,1154.277832 
	C1138.374146,1151.685547 1135.331421,1147.813843 1133.658813,1142.328369 
	C1132.641479,1138.992188 1130.060303,1136.110474 1128.061279,1133.104736 
	C1126.967529,1131.460327 1124.875000,1130.135864 1124.519531,1128.403076 
	C1122.818481,1120.112549 1116.667725,1117.802124 1109.609131,1115.800415 
	C1105.975708,1114.770142 1101.984741,1112.744995 1099.717163,1109.917114 
	C1098.101440,1107.902100 1097.658691,1102.399048 1099.158936,1100.865723 
	C1106.316040,1093.550293 1103.944824,1085.656982 1102.003540,1076.744507 
	C1111.509277,1068.646606 1121.045288,1061.377197 1131.260742,1053.983398 
z"/>
<path fill="#B88962" opacity="1.000000" stroke="none" 
	d="
M1503.026123,860.997070 
	C1499.029297,862.035278 1497.795410,864.332275 1497.998657,867.848694 
	C1498.294556,872.972595 1496.033813,876.582397 1491.831665,879.531555 
	C1489.471313,881.188110 1487.845703,883.900574 1485.925415,886.168091 
	C1485.501831,886.668213 1485.316284,887.375549 1484.877686,887.856628 
	C1478.972534,894.332336 1469.659180,897.607544 1466.870117,907.129272 
	C1466.676514,907.790527 1463.876831,907.688354 1462.644043,907.884644 
	C1453.744263,900.283752 1462.221191,893.942932 1463.701660,886.952209 
	C1456.545898,880.345703 1448.477661,880.359314 1440.517944,883.916809 
	C1427.476807,889.745483 1427.615601,890.034790 1421.947632,877.091858 
	C1421.576050,876.242981 1420.945679,875.507324 1420.458984,874.754944 
	C1411.806274,878.136780 1411.806274,878.136780 1413.185181,892.895447 
	C1407.638916,894.617554 1402.661987,894.552856 1397.376221,890.976562 
	C1390.324951,886.205688 1382.649414,882.357361 1374.522217,878.014099 
	C1384.633423,869.697021 1395.315918,861.273254 1406.324707,853.300171 
	C1434.609619,832.814575 1463.031006,812.517456 1491.422607,792.179565 
	C1494.618896,789.890015 1497.973267,787.821045 1501.363159,785.577820 
	C1504.578735,793.037292 1505.463745,836.081238 1503.026123,860.997070 
z"/>
<path fill="#C8A682" opacity="1.000000" stroke="none" 
	d="
M994.782715,1253.440063 
	C993.578857,1251.768188 992.374451,1249.431763 992.104919,1246.992188 
	C991.706055,1243.382568 993.281311,1238.979248 991.735596,1236.167480 
	C983.213867,1220.665405 990.872437,1205.553345 991.770996,1190.260742 
	C992.346252,1180.470215 993.788940,1170.293945 987.742554,1161.262451 
	C986.858032,1159.941284 985.950256,1158.041992 986.222046,1156.636230 
	C988.041077,1147.228271 982.439209,1141.080078 976.520752,1134.376953 
	C977.540894,1126.528320 984.215027,1123.139648 988.983704,1118.396362 
	C991.457703,1115.935547 992.195679,1113.320190 993.706787,1110.199463 
	C994.760315,1112.455811 995.691345,1114.970093 995.693298,1117.485107 
	C995.727478,1161.583984 995.650574,1205.682983 995.577087,1249.781860 
	C995.575439,1250.764648 995.331299,1251.746826 994.782715,1253.440063 
z"/>
<path fill="#B5815A" opacity="1.000000" stroke="none" 
	d="
M691.997559,1088.731445 
	C696.662231,1083.534790 701.670959,1078.921875 706.685852,1074.315552 
	C709.606445,1071.632935 712.388489,1068.771973 715.499878,1066.331787 
	C719.460022,1063.225830 723.580994,1063.947266 727.327820,1066.892090 
	C731.190979,1069.928345 730.943542,1074.322998 728.870605,1077.683838 
	C725.651550,1082.902954 721.667419,1087.772705 717.357788,1092.150757 
	C714.739014,1094.811035 711.819092,1096.854126 711.850586,1101.795776 
	C705.300354,1098.159058 698.822205,1093.738403 691.997559,1088.731445 
z"/>
<path fill="#B88962" opacity="1.000000" stroke="none" 
	d="
M1362.964966,1088.530884 
	C1361.620117,1082.723511 1359.770386,1077.429077 1355.912476,1072.424561 
	C1352.849487,1068.451416 1351.560059,1063.111084 1349.442993,1058.286255 
	C1357.606934,1055.710693 1367.402466,1059.432739 1372.832520,1065.954224 
	C1375.270508,1068.882324 1378.298584,1071.319214 1381.796021,1074.103882 
	C1376.236816,1078.930664 1369.940552,1083.632568 1362.964966,1088.530884 
z"/>
<path fill="#B45A33" opacity="1.000000" stroke="none" 
	d="
M1489.233887,1085.897949 
	C1489.949097,1088.451416 1490.001343,1091.115967 1489.996338,1093.780518 
	C1489.978394,1103.218628 1489.915405,1103.082642 1480.790039,1106.812622 
	C1478.096069,1107.913818 1475.647461,1109.820312 1473.373047,1111.703979 
	C1466.682373,1117.245483 1466.757080,1117.292236 1459.715332,1111.188843 
	C1459.007324,1110.575073 1457.905396,1110.415527 1456.239136,1109.920410 
	C1466.509521,1101.866699 1477.527100,1093.937866 1489.233887,1085.897949 
z"/>
<path fill="#B88962" opacity="1.000000" stroke="none" 
	d="
M1338.678467,1105.902832 
	C1334.566406,1100.902222 1331.128418,1095.795776 1327.692505,1090.688110 
	C1326.047974,1088.243408 1323.626099,1085.980347 1322.993652,1083.296387 
	C1322.412964,1080.832031 1322.880249,1076.771362 1324.508057,1075.513184 
	C1326.155151,1074.240356 1330.766602,1074.456055 1332.387329,1075.908203 
	C1338.944580,1081.783936 1346.098511,1087.319946 1350.390747,1096.209717 
	C1347.152344,1099.675415 1343.252930,1102.735840 1338.678467,1105.902832 
z"/>
<path fill="#C8A682" opacity="1.000000" stroke="none" 
	d="
M995.297302,1327.128662 
	C994.175537,1327.544800 993.019836,1327.264160 992.554688,1326.540039 
	C987.786499,1319.114746 984.547607,1297.450684 988.031006,1289.599487 
	C991.494263,1281.793945 992.339905,1273.921021 992.069153,1265.640869 
	C991.996521,1263.420288 992.703796,1261.174194 993.708984,1258.390869 
	C994.776611,1259.412842 995.541138,1260.982788 995.546631,1262.555298 
	C995.620728,1283.778564 995.589233,1305.002197 995.297302,1327.128662 
z"/>
<path fill="#B88962" opacity="1.000000" stroke="none" 
	d="
M1487.020996,1000.706604 
	C1486.243530,999.311096 1486.075928,997.672729 1486.041016,996.031555 
	C1485.719727,980.943298 1485.726318,980.943176 1500.961548,979.241821 
	C1501.521606,975.377930 1502.112915,971.298767 1503.244873,966.654907 
	C1504.257446,972.215088 1505.098877,978.345886 1505.002197,984.461792 
	C1504.968140,986.622070 1503.086670,989.284729 1501.274292,990.778625 
	C1496.994385,994.306702 1492.249512,997.270508 1487.020996,1000.706604 
z"/>
<path fill="#B45A33" opacity="1.000000" stroke="none" 
	d="
M1503.246582,1127.180664 
	C1497.552979,1127.879395 1494.483521,1125.059082 1494.078735,1119.701660 
	C1493.675537,1114.364746 1496.215088,1111.042847 1502.250000,1109.980713 
	C1503.134399,1115.399414 1503.328979,1120.854614 1503.246582,1127.180664 
z"/>
<path fill="#B88962" opacity="1.000000" stroke="none" 
	d="
M1503.517090,939.184448 
	C1496.200684,938.965454 1494.320068,937.170044 1494.039551,931.508667 
	C1493.767578,926.023499 1496.533936,923.775085 1502.499023,923.961182 
	C1503.419678,928.736511 1503.594360,933.526794 1503.517090,939.184448 
z"/>
<path fill="#B5815A" opacity="1.000000" stroke="none" 
	d="
M674.402954,1076.218750 
	C677.759583,1068.064209 677.759583,1068.064209 685.602295,1069.598999 
	C685.047974,1073.317261 684.489136,1077.065674 683.870667,1081.653687 
	C680.785217,1080.596191 677.759338,1078.699097 674.402954,1076.218750 
z"/>
<path fill="#BD956E" opacity="1.000000" stroke="none" 
	d="
M1085.224731,1087.970703 
	C1091.758789,1087.458984 1094.419312,1090.890869 1095.555786,1096.931519 
	C1089.627930,1098.217896 1085.990112,1096.206543 1083.866699,1090.128662 
	C1083.918457,1088.794434 1084.279053,1088.367432 1085.224731,1087.970703 
z"/>
<path fill="#B45A33" opacity="1.000000" stroke="none" 
	d="
M1503.166748,1087.290161 
	C1500.737671,1086.355103 1498.587646,1084.673218 1496.191162,1082.427490 
	C1497.817749,1080.426025 1499.690918,1078.988525 1502.916870,1076.512695 
	C1503.157959,1081.085815 1503.302002,1083.814575 1503.166748,1087.290161 
z"/>
<path fill="#A6542E" opacity="1.000000" stroke="none" 
	d="
M560.904541,1083.012695 
	C558.528625,1083.742065 555.790955,1083.879150 552.245117,1084.038086 
	C551.255493,1081.979126 551.073914,1079.898438 550.706238,1075.684082 
	C555.010437,1078.631836 557.776611,1080.526245 560.904541,1083.012695 
z"/>
<path fill="#C8A682" opacity="1.000000" stroke="none" 
	d="
M990.194397,1103.190063 
	C988.999939,1103.037354 987.581604,1102.309326 986.046509,1100.938599 
	C987.276672,1101.068848 988.623596,1101.841797 990.194397,1103.190063 
z"/>
<path fill="#C8A682" opacity="1.000000" stroke="none" 
	d="
M1206.350342,1199.436523 
	C1206.173706,1198.958374 1206.631104,1198.498901 1207.786621,1198.178711 
	C1207.848633,1198.582031 1207.348389,1198.961060 1206.350342,1199.436523 
z"/>
<path fill="#A6542E" opacity="1.000000" stroke="none" 
	d="
M577.993652,1209.647949 
	C577.697205,1211.942017 577.404236,1213.442993 576.977722,1215.628418 
	C568.938232,1212.814819 574.362427,1205.299316 570.386780,1201.535767 
	C577.399292,1200.063477 578.161926,1204.018677 577.993652,1209.647949 
z"/>
</svg>